<svg version="1.0" xmlns="http://www.w3.org/2000/svg"
 width="512.000000pt" height="512.000000pt" viewBox="0 0 512.000000 512.000000"
 preserveAspectRatio="xMidYMid meet">
<g transform="translate(0.000000,512.000000) scale(0.100000,-0.100000)"
fill="#FFF" stroke="none">
<path d="M3780 3933 c-8 -3 -286 -276 -617 -607 l-603 -601 -603 603 -602 602
-49 0 c-41 0 -53 -5 -82 -34 -29 -29 -34 -41 -34 -82 l0 -49 602 -602 603
-603 -603 -603 c-562 -563 -604 -606 -608 -643 -9 -75 61 -142 135 -130 31 5
113 83 638 608 l603 603 603 -603 c525 -525 607 -603 638 -608 74 -12 144 55
135 130 -4 37 -46 80 -608 643 l-603 603 603 603 c525 525 603 607 608 638 14
84 -77 160 -156 132z"/>
</g>
</svg>
