<svg version="1.0" xmlns="http://www.w3.org/2000/svg"
 width="512.000000pt" height="512.000000pt" viewBox="0 0 512.000000 512.000000"
 preserveAspectRatio="xMidYMid meet">
<g transform="translate(0.000000,512.000000) scale(0.100000,-0.100000)"
fill="#FFF" stroke="none">
<path d="M2055 4674 c-97 -34 -159 -118 -181 -244 -15 -88 -28 -113 -71 -141
-26 -17 -55 -19 -386 -19 -230 0 -374 -4 -402 -11 -27 -7 -63 -28 -90 -51
-112 -98 -88 -275 46 -342 l53 -26 1536 0 1536 0 53 26 c127 64 155 219 59
328 -64 73 -81 76 -502 76 -334 0 -363 1 -389 19 -43 28 -56 53 -71 141 -23
129 -84 211 -185 245 -64 22 -945 21 -1006 -1z"/>
<path d="M1195 3396 c-40 -17 -95 -72 -111 -113 -8 -18 -14 -56 -14 -85 0
-111 170 -2066 185 -2128 22 -92 104 -254 167 -330 125 -150 299 -255 488
-295 105 -22 1195 -22 1300 0 199 42 386 160 506 318 57 74 126 218 148 307
20 79 188 2043 184 2142 -3 56 -9 74 -35 110 -17 24 -50 53 -74 65 l-42 23
-1336 0 c-1085 -1 -1342 -3 -1366 -14z"/>
</g>
</svg>
